<svg xmlns="http://www.w3.org/2000/svg" xmlns:xlink="http://www.w3.org/1999/xlink" width="160" zoomAndPan="magnify" viewBox="0 0 120 30.000001" height="40" preserveAspectRatio="xMidYMid meet" version="1.0"><defs><g/></defs><g fill="#161927" fill-opacity="1"><g transform="translate(1.946823, 21.371489)"><g><path d="M 7.144531 0 L 9.765625 0 L 9.765625 -10.867188 L 15.410156 -10.867188 L 15.410156 -13.492188 L 1.5 -13.492188 L 1.5 -10.867188 L 7.144531 -10.867188 Z M 7.144531 0 "/></g></g></g><g fill="#161927" fill-opacity="1"><g transform="translate(18.85507, 21.371489)"><g><path d="M 1.5 0 L 11.804688 0 L 11.804688 -2.625 L 7.964844 -2.625 L 7.964844 -10.867188 L 11.804688 -10.867188 L 11.804688 -13.492188 L 1.5 -13.492188 L 1.5 -10.867188 L 5.339844 -10.867188 L 5.339844 -2.625 L 1.5 -2.625 Z M 5.339844 -16.113281 L 7.964844 -16.113281 L 7.964844 -18.738281 L 5.339844 -18.738281 Z M 5.339844 -16.113281 "/></g></g></g><g fill="#161927" fill-opacity="1"><g transform="translate(32.156855, 21.371489)"><g><path d="M 7.144531 0 L 9.765625 0 L 9.765625 -10.867188 L 15.410156 -10.867188 L 15.410156 -13.492188 L 1.5 -13.492188 L 1.5 -10.867188 L 7.144531 -10.867188 Z M 7.144531 0 "/></g></g></g><g fill="#161927" fill-opacity="1"><g transform="translate(49.065101, 21.371489)"><g><path d="M 4.121094 0 L 13.257812 0 L 15.878906 -2.625 L 15.878906 -10.867188 L 13.257812 -13.492188 L 4.121094 -13.492188 L 1.5 -10.867188 L 1.5 -2.625 Z M 4.121094 -2.625 L 4.121094 -10.867188 L 13.257812 -10.867188 L 13.257812 -2.625 Z M 4.121094 -2.625 "/></g></g></g><g fill="#ffbd59" fill-opacity="1"><g transform="translate(66.44153, 21.371489)"><g><path d="M 4.121094 0 L 12.789062 0 L 15.410156 -2.625 L 15.410156 -16.113281 L 12.789062 -16.113281 L 12.789062 -13.492188 L 4.121094 -13.492188 L 1.5 -10.867188 L 1.5 -2.625 Z M 4.121094 -2.625 L 4.121094 -10.867188 L 12.789062 -10.867188 L 12.789062 -2.625 Z M 4.121094 -2.625 "/></g></g></g><g fill="#ffbd59" fill-opacity="1"><g transform="translate(83.349777, 21.371489)"><g><path d="M 4.121094 0 L 15.832031 0 L 15.832031 -2.625 L 4.121094 -2.625 L 4.121094 -5.433594 L 12.789062 -5.433594 L 12.789062 -8.058594 L 4.121094 -8.058594 L 4.121094 -10.867188 L 15.832031 -10.867188 L 15.832031 -13.492188 L 4.121094 -13.492188 L 1.5 -10.867188 L 1.5 -2.625 Z M 4.121094 0 "/></g></g></g><g fill="#ffbd59" fill-opacity="1"><g transform="translate(100.679557, 21.371489)"><g><path d="M 4.824219 0 L 12.554688 0 L 15.175781 -2.625 L 15.878906 -13.492188 L 13.257812 -13.492188 L 12.554688 -2.625 L 4.824219 -2.625 L 4.121094 -13.492188 L 1.5 -13.492188 L 2.203125 -2.625 Z M 4.824219 0 "/></g></g></g></svg>